<svg width="67" height="68" xmlns="http://www.w3.org/2000/svg" xmlns:xlink="http://www.w3.org/1999/xlink" overflow="hidden"><defs><clipPath id="clip0"><rect x="974" y="250" width="67" height="68"/></clipPath></defs><g clip-path="url(#clip0)" transform="translate(-974 -250)"><path d="M13.9583 9.77083 9.77083 9.77083 9.77083 57.2292 57.2292 57.2292 57.2292 53.0417 13.9583 53.0417Z" transform="matrix(1 0 0 1.01493 974 250)"/><path d="M18.1458 24.4271 25.8229 24.4271 25.8229 48.8542 18.1458 48.8542Z" transform="matrix(1 0 0 1.01493 974 250)"/><path d="M28.6146 9.77083 36.2917 9.77083 36.2917 48.8542 28.6146 48.8542Z" transform="matrix(1 0 0 1.01493 974 250)"/><path d="M39.0833 24.4271 46.7604 24.4271 46.7604 48.8542 39.0833 48.8542Z" transform="matrix(1 0 0 1.01493 974 250)"/><path d="M49.5521 36.2917 57.2292 36.2917 57.2292 48.8542 49.5521 48.8542Z" transform="matrix(1 0 0 1.01493 974 250)"/></g></svg>