<svg width="70" height="70" xmlns="http://www.w3.org/2000/svg" xmlns:xlink="http://www.w3.org/1999/xlink" overflow="hidden"><defs><clipPath id="clip0"><rect x="1069" y="251" width="70" height="70"/></clipPath></defs><g clip-path="url(#clip0)" transform="translate(-1069 -251)"><path d="M1099.62 270.688 1111.29 270.688 1111.29 268.5C1111.29 266.896 1109.98 265.583 1108.38 265.583L1077.75 265.583C1076.15 265.583 1074.83 266.896 1074.83 268.5L1074.83 288.188C1074.83 289.792 1076.15 291.104 1077.75 291.104L1082.12 291.104 1082.12 298.396 1089.42 291.104 1093.79 291.104 1093.79 276.521C1093.79 273.312 1096.42 270.688 1099.62 270.688Z"/><path d="M1130.25 273.604 1099.62 273.604C1098.02 273.604 1096.71 274.917 1096.71 276.521L1096.71 296.208C1096.71 297.812 1098.02 299.125 1099.62 299.125L1118.58 299.125 1125.88 306.417 1125.88 299.125 1130.25 299.125C1131.85 299.125 1133.17 297.812 1133.17 296.208L1133.17 276.521C1133.17 274.917 1131.85 273.604 1130.25 273.604Z"/></g></svg>