<svg width="49" height="49" xmlns="http://www.w3.org/2000/svg" xmlns:xlink="http://www.w3.org/1999/xlink" overflow="hidden"><defs><clipPath id="clip0"><rect x="1106" y="21" width="49" height="49"/></clipPath></defs><g clip-path="url(#clip0)" transform="translate(-1106 -21)"><path d="M1138.67 36.3125C1138.67 40.8228 1135.01 44.4792 1130.5 44.4792 1125.99 44.4792 1122.33 40.8228 1122.33 36.3125 1122.33 31.8022 1125.99 28.1458 1130.5 28.1458 1135.01 28.1458 1138.67 31.8022 1138.67 36.3125Z" fill="#FFFFFF"/><path d="M1146.83 62.8542 1146.83 54.6875C1146.83 53.4625 1146.22 52.2375 1145.2 51.4208 1142.95 49.5833 1140.1 48.3583 1137.24 47.5417 1135.2 46.9292 1132.95 46.5208 1130.5 46.5208 1128.25 46.5208 1126.01 46.9292 1123.76 47.5417 1120.9 48.3583 1118.05 49.7875 1115.8 51.4208 1114.78 52.2375 1114.17 53.4625 1114.17 54.6875L1114.17 62.8542 1146.83 62.8542Z" fill="#FFFFFF"/></g></svg>