<svg width="50" height="49" xmlns="http://www.w3.org/2000/svg" xmlns:xlink="http://www.w3.org/1999/xlink" overflow="hidden"><defs><clipPath id="clip0"><rect x="410" y="401" width="50" height="49"/></clipPath></defs><g clip-path="url(#clip0)" transform="translate(-410 -401)"><path d="M43.6406 38.5875 37.2604 32.2073C36.3927 31.3396 35.2188 31.0333 34.0958 31.2375L31.85 28.9917C33.8406 26.4396 35.0146 23.1729 35.0146 19.7021 35.0146 11.2802 28.124 4.38958 19.7021 4.38958 11.2802 4.38958 4.38958 11.2802 4.38958 19.7021 4.38958 28.124 11.2802 35.0146 19.7021 35.0146 23.1729 35.0146 26.3885 33.8406 28.9917 31.85L31.2375 34.0958C31.0333 35.2188 31.3396 36.3927 32.2073 37.2604L38.5875 43.6406C39.3021 44.3552 40.2208 44.7125 41.1396 44.7125 42.0583 44.7125 42.9771 44.3552 43.6917 43.6406 45.0187 42.2115 45.0187 39.9656 43.6406 38.5875ZM19.651 31.901C12.9135 31.901 7.40104 26.3885 7.40104 19.651 7.40104 12.9135 12.9135 7.40104 19.651 7.40104 26.3885 7.40104 31.901 12.9135 31.901 19.651 31.901 26.3885 26.3885 31.901 19.651 31.901Z" fill="#7F7F7F" transform="matrix(1.02041 0 0 1 410 401)"/></g></svg>