<svg width="142" height="136" xmlns="http://www.w3.org/2000/svg" xmlns:xlink="http://www.w3.org/1999/xlink" overflow="hidden"><defs><clipPath id="clip0"><rect x="4157" y="2237" width="142" height="136"/></clipPath></defs><g clip-path="url(#clip0)" transform="translate(-4157 -2237)"><path d="M4162 2265.67C4162 2257.57 4168.57 2251 4176.67 2251L4183.83 2251 4183.83 2251 4216.58 2251 4278.33 2251C4286.43 2251 4293 2257.57 4293 2265.67L4293 2302.33 4293 2302.33 4293 2324.33 4293 2324.33C4293 2332.43 4286.43 2339 4278.33 2339L4216.58 2339 4200.21 2350 4183.83 2339 4176.67 2339C4168.57 2339 4162 2332.43 4162 2324.33L4162 2324.33 4162 2302.33 4162 2302.33Z" fill="#FFFFFF" fill-rule="evenodd"/><text font-family="Arial,Arial_MSFontService,sans-serif" font-weight="400" font-size="64" transform="matrix(1 0 0 1 4195.86 2319)">…</text></g></svg>